<svg width="15" height="15" viewBox="0 0 15 15" fill="none" xmlns="http://www.w3.org/2000/svg">
<path d="M2.70117 11.2129C2.01562 11.2129 1.49723 11.0394 1.146 10.6924C0.794759 10.3454 0.619141 9.83122 0.619141 9.1499V2.68164C0.619141 2.00033 0.794759 1.48617 1.146 1.13916C1.49723 0.792155 2.01562 0.618652 2.70117 0.618652H9.13135C9.81689 0.618652 10.3353 0.794271 10.6865 1.14551C11.0378 1.49251 11.2134 2.00456 11.2134 2.68164V4.17334H9.96289V2.78955C9.96289 2.48063 9.8846 2.25 9.72803 2.09766C9.57145 1.94108 9.34717 1.86279 9.05518 1.86279H2.77734C2.48112 1.86279 2.25472 1.94108 2.09814 2.09766C1.9458 2.25 1.86963 2.48063 1.86963 2.78955V9.04199C1.86963 9.35091 1.9458 9.58366 2.09814 9.74023C2.25472 9.89258 2.48112 9.96875 2.77734 9.96875H4.396V11.2129H2.70117ZM5.8623 14.2344C5.17676 14.2344 4.65837 14.0609 4.30713 13.7139C3.95589 13.3669 3.78027 12.8527 3.78027 12.1714V5.69678C3.78027 5.01969 3.95589 4.50765 4.30713 4.16064C4.65837 3.80941 5.17676 3.63379 5.8623 3.63379H12.2925C12.978 3.63379 13.4964 3.80941 13.8477 4.16064C14.1989 4.51188 14.3745 5.02393 14.3745 5.69678V12.1714C14.3745 12.8485 14.1989 13.3605 13.8477 13.7075C13.4964 14.0588 12.978 14.2344 12.2925 14.2344H5.8623ZM5.93848 12.9902H12.2163C12.5083 12.9902 12.7326 12.9119 12.8892 12.7554C13.0457 12.603 13.124 12.3724 13.124 12.0635V5.81104C13.124 5.50212 13.0457 5.27148 12.8892 5.11914C12.7326 4.96257 12.5083 4.88428 12.2163 4.88428H5.93848C5.64225 4.88428 5.41585 4.96257 5.25928 5.11914C5.1027 5.27148 5.02441 5.50212 5.02441 5.81104V12.0635C5.02441 12.3724 5.1027 12.603 5.25928 12.7554C5.41585 12.9119 5.64225 12.9902 5.93848 12.9902Z" fill="#194166"/>
</svg>
